<svg xmlns="http://www.w3.org/2000/svg" version="1.1" xmlns:xlink="http://www.w3.org/1999/xlink" xmlns:svgjs="http://svgjs.dev/svgjs" width="1535" height="695" preserveAspectRatio="none" viewBox="0 0 1535 695"><g mask="url(&quot;#SvgjsMask1197&quot;)" fill="none"><rect width="1535" height="695" x="0" y="0" fill="rgba(255, 127, 211, 1)"></rect><path d="M0,416.887C77.857,408.641,151.601,380.43,214.711,334.097C275.218,289.675,307.945,221.999,350.075,159.874C401.409,84.177,485.13,21.08,488.953,-70.301C492.895,-164.528,444.143,-262.25,370.183,-320.765C299.2,-376.924,197.023,-350.197,108.926,-370.968C27.124,-390.255,-46.413,-455.38,-128.724,-438.394C-212.413,-421.124,-272.388,-348.934,-324.822,-281.46C-375.193,-216.64,-412.983,-142.276,-422.221,-60.706C-431.295,19.418,-405.908,96.838,-376.15,171.782C-345.015,250.193,-316.76,336.842,-246.076,382.901C-175.266,429.042,-84.046,425.789,0,416.887" fill="#ff46bf"></path><path d="M1535 1212.296C1661.164 1204.74 1785.59 1314.891 1902.472 1266.798 2021.021 1218.019 2096.7290000000003 1090.685 2130.859 967.12 2162.939 850.977 2091.008 736.498 2082.139 616.333 2072.365 483.904 2157.065 331.377 2076.163 226.079 1995.907 121.62199999999996 1830.465 156.08299999999997 1702.996 122.85900000000004 1580.334 90.88800000000003 1462.454-1.9919999999999618 1341.0529999999999 34.476 1219.713 70.92499999999995 1162.008 204.829 1087.935 307.616 1020.288 401.486 947.156 493.62 927.947 607.719 908.479 723.36 946.545 836.057 980.052 948.436 1018.642 1077.863 1016.135 1254.583 1138.107 1312.577 1263.8890000000001 1372.382 1395.973 1220.623 1535 1212.296" fill="#ffb8e7"></path></g><defs><mask id="SvgjsMask1197"><rect width="1535" height="695" fill="#ffffff"></rect></mask></defs></svg>