<svg viewBox="0 0 1280 720" width="1280" height="720" xmlns="http://www.w3.org/2000/svg"><rect width="1280" height="720" fill="transparent"></rect><path d="M0,553.4C91.4,553,91,523,183,522.7C274.3,523,274,151,366,151.1C457.1,151,457,429,549,429.2C640,429,640,625,731,624.9C822.9,625,823,275,914,274.8C1005.7,275,1006,61,1097,60.9C1188.6,61,1189,612,1280,611.8L1280,0C1188.6,0,1189,0,1097,0C1005.7,0,1006,0,914,0C822.9,0,823,0,731,0C640,0,640,0,549,0C457.1,0,457,0,366,0C274.3,0,274,0,183,0C91.4,0,91,0,0,0Z" fill="#FFA8F7" stroke="#FFA8F7" stroke-width="0"></path></svg>